<?xml version="1.0" encoding="UTF-8"?>
<svg width="200px" height="60px" viewBox="0 0 200 60" version="1.1" xmlns="http://www.w3.org/2000/svg" xmlns:xlink="http://www.w3.org/1999/xlink">
    <!-- Generator: Sketch 44.1 (41455) - http://www.bohemiancoding.com/sketch -->
    <title>Artboard</title>
    <desc>Created with Sketch.</desc>
    <defs></defs>
    <g id="Page-1" stroke="none" stroke-width="1" fill="none" fill-rule="evenodd">
        <g id="Artboard">
            <rect id="Rectangle" fill="#DE4848" x="0" y="0" width="200" height="60"></rect>
            <path d="M29.3720703,19.5878906 L32.1474609,19.5878906 L32.1474609,27.4082031 L39.7080078,27.4082031 L39.7080078,19.5878906 L42.4833984,19.5878906 L42.4833984,40 L39.7080078,40 L39.7080078,29.7324219 L32.1474609,29.7324219 L32.1474609,40 L29.3720703,40 L29.3720703,19.5878906 Z M51.1044922,19.5878906 L62.4384766,19.5878906 L62.4384766,21.9121094 L58.1591797,21.9121094 L58.1591797,37.6757812 L62.4384766,37.6757812 L62.4384766,40 L51.1044922,40 L51.1044922,37.6757812 L55.3837891,37.6757812 L55.3837891,21.9121094 L51.1044922,21.9121094 L51.1044922,19.5878906 Z M79.6044922,30.3613281 C80.3154332,30.5436207 80.921547,30.8876928 81.4228516,31.3935547 C81.9241562,31.8994166 82.5484989,32.9088466 83.2958984,34.421875 L86.0712891,40 L83.1044922,40 L80.6708984,34.8457031 C79.969072,33.3782479 79.3378934,32.4326193 78.7773438,32.0087891 C78.2167941,31.5849588 77.4853561,31.3730469 76.5830078,31.3730469 L73.9443359,31.3730469 L73.9443359,40 L71.1689453,40 L71.1689453,19.5878906 L76.8564453,19.5878906 C79.098644,19.5878906 80.8167258,20.0937449 82.0107422,21.1054688 C83.2047586,22.1171926 83.8017578,23.5800686 83.8017578,25.4941406 C83.8017578,26.8431057 83.4348995,27.9436806 82.7011719,28.7958984 C81.9674442,29.6481162 80.935228,30.1699209 79.6044922,30.3613281 Z M73.9443359,21.8574219 L73.9443359,29.1035156 L76.9658203,29.1035156 C78.2874415,29.1035156 79.2718067,28.8072946 79.9189453,28.2148438 C80.566084,27.6223929 80.8896484,26.7155009 80.8896484,25.4941406 C80.8896484,24.3183535 80.5455764,23.4182974 79.8574219,22.7939453 C79.1692674,22.1695932 78.1689519,21.8574219 76.8564453,21.8574219 L73.9443359,21.8574219 Z M92.7646484,19.5878906 L104.87793,19.5878906 L104.87793,21.9121094 L95.5263672,21.9121094 L95.5263672,27.4082031 L104.467773,27.4082031 L104.467773,29.7324219 L95.5263672,29.7324219 L95.5263672,37.6757812 L105.137695,37.6757812 L105.137695,40 L92.7646484,40 L92.7646484,19.5878906 Z M132.27832,19.65625 L135.969727,19.65625 L139.49707,30.0195312 L143.051758,19.65625 L146.756836,19.65625 L146.756836,40 L144.200195,40 L144.200195,22.0214844 L140.563477,32.7402344 L138.47168,32.7402344 L134.821289,22.0214844 L134.821289,40 L132.27832,40 L132.27832,19.65625 Z M155.336914,19.5878906 L167.450195,19.5878906 L167.450195,21.9121094 L158.098633,21.9121094 L158.098633,27.4082031 L167.040039,27.4082031 L167.040039,29.7324219 L158.098633,29.7324219 L158.098633,37.6757812 L167.709961,37.6757812 L167.709961,40 L155.336914,40 L155.336914,19.5878906 Z" id="HIRE-ME" fill="#FFFFFF"></path>
        </g>
    </g>
</svg>